<svg width="176" height="80" viewBox="0 0 176 80" fill="none" xmlns="http://www.w3.org/2000/svg">
<path d="M43 10H10V70H43V10Z" fill="#EFF0F1"/>
<path d="M41.5 14.5H11.5V64H41.5V14.5Z" fill="#31363B"/>
<path d="M31 65.5H22V67H31V65.5Z" fill="#4D4D4D" fill-opacity="0.3"/>
<path d="M43 68.5H10V70H43V68.5Z" fill="white"/>
<path opacity="0.2" fill-rule="evenodd" clip-rule="evenodd" d="M23.0605 29.9395L20.9395 32.0605L31.4395 42.5605L29.5 44.5L41.5 56.5V41.5L37 37L33.5605 40.4395L23.0605 29.9395ZM19.8408 37.6592L16.6592 40.8408L23.4092 47.5908L21.1592 49.8408L35.3184 64H41.5V59.3184L19.8408 37.6592Z" fill="url(#paint0_linear)"/>
<path fill-rule="evenodd" clip-rule="evenodd" d="M29.5 44.5L26.5 41.5L31 37L26.5 32.5L29.5 29.5L37 37L29.5 44.5Z" fill="white"/>
<path d="M22.75 50.5C23.9926 50.5 25 49.4926 25 48.25C25 47.0074 23.9926 46 22.75 46C21.5074 46 20.5 47.0074 20.5 48.25C20.5 49.4926 21.5074 50.5 22.75 50.5Z" fill="white"/>
<path d="M18.25 41.5C19.4926 41.5 20.5 40.4926 20.5 39.25C20.5 38.0074 19.4926 37 18.25 37C17.0074 37 16 38.0074 16 39.25C16 40.4926 17.0074 41.5 18.25 41.5Z" fill="white"/>
<path d="M22 32.5C22.8284 32.5 23.5 31.8284 23.5 31C23.5 30.1716 22.8284 29.5 22 29.5C21.1716 29.5 20.5 30.1716 20.5 31C20.5 31.8284 21.1716 32.5 22 32.5Z" fill="white"/>
<path d="M73 39.3823V17.5H79.6912C80.6324 17.5 81.4902 17.603 82.2647 17.8088C83.0392 18.005 83.7353 18.3138 84.353 18.7352C84.9804 19.1568 85.4657 19.7304 85.8088 20.4559C86.152 21.1716 86.3236 22.0098 86.3236 22.9706C86.3236 23.5294 86.2941 24.0344 86.2353 24.4854C86.1863 24.9265 86.0883 25.3823 85.9412 25.8529C85.7941 26.3235 85.5932 26.7353 85.3383 27.0883C85.0932 27.4411 84.7647 27.7794 84.353 28.1029C83.951 28.4265 83.4706 28.6912 82.9118 28.897C82.3628 29.1028 81.701 29.2647 80.9265 29.3824C80.152 29.5 79.2794 29.5588 78.3089 29.5588C77.2696 29.5588 76.1324 29.4951 74.8971 29.3677V39.3823H73H73ZM78.5 27.9265C79.6373 27.9265 80.603 27.8138 81.3971 27.5883C82.1912 27.3628 82.7843 27.1078 83.1765 26.8235C83.5687 26.5392 83.8677 26.1373 84.0736 25.6177C84.2794 25.0981 84.3922 24.6815 84.4118 24.3677C84.4412 24.0539 84.4559 23.6127 84.4559 23.0441C84.4559 23.0047 84.4559 22.9751 84.4559 22.9551C84.4559 21.6707 84.0196 20.7148 83.1471 20.0874C82.2745 19.4599 81.1471 19.1462 79.7647 19.1462H74.8971V27.7491C75.7598 27.8669 76.9608 27.9257 78.5 27.9257L78.5 27.9265Z" fill="white"/>
<path d="M93.7206 39.7205C92.3677 39.7205 91.3775 39.4166 90.75 38.8088C90.1226 38.1912 89.8088 37.1912 89.8088 35.8088V17L91.603 16.853V35.7062C91.603 36.6866 91.7794 37.363 92.1324 37.7355C92.4951 38.108 93.0392 38.2942 93.7647 38.2942C94.353 38.2942 95.0882 38.1816 95.9706 37.9562L96.0441 39.3677C95.0833 39.603 94.3088 39.7207 93.7206 39.7207V39.7205Z" fill="white"/>
<path d="M102.5 39.7352C100.98 39.7352 99.7647 39.3529 98.853 38.5883C97.9412 37.8235 97.4853 36.7304 97.4853 35.309C97.4853 34.4658 97.6667 33.7353 98.0294 33.1177C98.3922 32.4901 98.9167 31.9853 99.603 31.603C100.299 31.2108 101.088 30.9069 101.971 30.6912C102.863 30.4755 103.897 30.3236 105.074 30.2354C106.328 30.1574 107.26 30.0936 107.868 30.0442V28.25C107.868 27.0147 107.583 26.0882 107.015 25.4705C106.456 24.8431 105.554 24.5294 104.309 24.5294C102.603 24.5294 101.01 24.9363 99.5294 25.75C99.4902 25.652 99.3971 25.4413 99.25 25.1177C99.1128 24.7843 99.0147 24.5294 98.9559 24.3529C99.5637 23.9608 100.358 23.6323 101.338 23.3677C102.319 23.1029 103.279 22.9706 104.221 22.9706C106.152 22.9706 107.539 23.3872 108.382 24.2206C109.225 25.044 109.647 26.5097 109.647 28.6177V39.3823H108.221C108.172 39.1568 108.098 38.7107 108 38.0441C107.912 37.3774 107.868 37.0344 107.868 37.0148C106.603 38.8284 104.814 39.7352 102.5 39.7352H102.5ZM102.559 38.2793C103.814 38.2793 104.926 37.9117 105.897 37.1765C106.877 36.4314 107.52 35.4021 107.824 34.0883V31.3383C106.412 31.4559 105.701 31.5146 105.691 31.5146C103.299 31.7304 101.637 32.1225 100.706 32.6912C99.7745 33.2598 99.3088 34.1421 99.3088 35.3383C99.3088 36.3187 99.6029 37.054 100.191 37.5441C100.789 38.0343 101.578 38.2793 102.559 38.2793V38.2793Z" fill="white"/>
<path d="M118.721 39.7499C117.681 39.7499 116.706 39.6225 115.794 39.3677C114.882 39.1127 114.162 38.8088 113.632 38.4559L113.897 36.9265C115.515 37.7696 117.064 38.1912 118.544 38.1912C121.201 38.1912 122.578 37.2058 122.676 35.2352C122.676 34.4118 122.407 33.7647 121.868 33.2941C121.338 32.8235 120.27 32.3333 118.662 31.8235C117.819 31.5294 117.353 31.3677 117.265 31.3383C114.745 30.5736 113.475 29.2158 113.456 27.2648C113.456 26.1374 113.951 25.1422 114.941 24.2794C115.941 23.4069 117.289 22.9706 118.985 22.9706C120.681 22.9706 122.275 23.3039 123.765 23.9705L123.147 25.3235C121.637 24.7549 120.235 24.4706 118.941 24.4706C117.804 24.4706 116.907 24.7256 116.25 25.2354C115.603 25.7452 115.279 26.4313 115.279 27.2941C115.279 28.0195 115.49 28.5784 115.912 28.9706C116.343 29.3529 117.191 29.7206 118.456 30.0736C118.593 30.1129 118.843 30.2012 119.206 30.3383C119.578 30.4755 119.784 30.549 119.824 30.5588C121.52 31.0784 122.701 31.6961 123.368 32.4119C124.044 33.1177 124.382 34.0834 124.382 35.309C124.353 36.7206 123.824 37.8137 122.794 38.5883C121.775 39.3627 120.417 39.7499 118.721 39.7499V39.7499Z" fill="white"/>
<path d="M127.941 39.3823C127.912 29.6372 127.897 24.2646 127.897 23.2646H129.485L129.721 25.7354C130.191 24.9314 130.892 24.2696 131.824 23.75C132.765 23.2304 133.76 22.9706 134.809 22.9706C137.387 22.9706 139.005 23.9854 139.662 26.0148C140.809 23.9854 142.618 22.9706 145.088 22.9706C146.853 22.9706 148.147 23.4756 148.971 24.4854C149.804 25.4854 150.221 26.9804 150.221 28.9706V39.3823H148.397V31.4999C148.397 30.7548 148.387 30.1323 148.368 29.6323C148.348 29.1323 148.299 28.5882 148.221 28C148.152 27.4118 148.039 26.9314 147.882 26.5588C147.735 26.1863 147.539 25.8333 147.294 25.4999C147.049 25.1666 146.735 24.9216 146.353 24.7646C145.971 24.6078 145.52 24.5294 145 24.5294C143.765 24.5294 142.716 24.8971 141.853 25.6324C141 26.3579 140.407 27.3824 140.074 28.7059C140.093 29.7059 140.118 30.4804 140.147 31.0294V39.3823H138.338V31.1765C138.338 30.3431 138.314 29.6226 138.265 29.0148C138.216 28.3971 138.118 27.7941 137.971 27.2059C137.824 26.6177 137.623 26.1374 137.368 25.7648C137.123 25.3922 136.789 25.0931 136.368 24.8677C135.956 24.6421 135.461 24.5294 134.882 24.5294C133.549 24.5294 132.431 24.8873 131.529 25.603C130.637 26.3088 130.059 27.2744 129.794 28.4999C129.775 28.9019 129.765 29.4754 129.765 30.2206V39.3823H127.941H127.941Z" fill="white"/>
<path d="M158.735 39.7352C157.216 39.7352 156 39.3529 155.088 38.5883C154.176 37.8235 153.721 36.7304 153.721 35.309C153.721 34.4658 153.902 33.7353 154.265 33.1177C154.627 32.4901 155.152 31.9853 155.838 31.603C156.534 31.2108 157.324 30.9069 158.206 30.6912C159.098 30.4755 160.132 30.3236 161.309 30.2354C162.564 30.1574 163.495 30.0936 164.103 30.0442V28.25C164.103 27.0147 163.819 26.0882 163.25 25.4705C162.691 24.8431 161.789 24.5294 160.544 24.5294C158.838 24.5294 157.245 24.9363 155.765 25.75C155.725 25.652 155.632 25.4413 155.485 25.1177C155.348 24.7843 155.25 24.5294 155.191 24.3529C155.799 23.9608 156.593 23.6323 157.574 23.3677C158.554 23.1029 159.515 22.9706 160.456 22.9706C162.387 22.9706 163.775 23.3872 164.618 24.2206C165.461 25.044 165.882 26.5097 165.882 28.6177V39.3823H164.456C164.407 39.1568 164.333 38.7107 164.235 38.0441C164.147 37.3774 164.103 37.0344 164.103 37.0148C162.838 38.8284 161.049 39.7352 158.735 39.7352H158.735ZM158.794 38.2793C160.049 38.2793 161.162 37.9117 162.132 37.1765C163.113 36.4314 163.755 35.4021 164.059 34.0883V31.3383C162.647 31.4559 161.936 31.5146 161.926 31.5146C159.534 31.7304 157.873 32.1225 156.941 32.6912C156.01 33.2598 155.544 34.1421 155.544 35.3383C155.544 36.3187 155.838 37.054 156.426 37.5441C157.024 38.0343 157.814 38.2793 158.794 38.2793V38.2793Z" fill="white"/>
<path d="M73 62.8081V47.3112H74.8746L80.6131 60.4025L86.1953 47.3112H87.997V62.8081H86.6744V52.3831L86.7473 48.863L86.3619 50.1127L81.2692 61.923H79.8111L74.6559 50.0815L74.2498 48.8317L74.3227 52.4351V62.8081H73H73Z" fill="white"/>
<path d="M96.1517 62.027C96.9848 62.027 97.6861 61.8084 98.2554 61.371C98.8317 60.9266 99.2483 60.3433 99.5052 59.6212C99.769 58.8992 99.9009 58.0695 99.9009 57.1322C99.9009 55.6602 99.5885 54.4764 98.9636 53.5808C98.3387 52.6851 97.3875 52.2373 96.11 52.2373C95.2768 52.2373 94.5652 52.4629 93.975 52.9142C93.3918 53.3586 92.9648 53.9453 92.694 54.6743C92.4232 55.3964 92.2879 56.2262 92.2879 57.1635C92.2879 58.5868 92.6177 59.7532 93.2772 60.6628C93.9438 61.5723 94.9019 62.027 96.1517 62.027V62.027ZM96.0579 63.0581C95.0234 63.0581 94.1104 62.7978 93.3189 62.277C92.5343 61.7563 91.9338 61.0516 91.5172 60.1628C91.1075 59.2672 90.9027 58.2569 90.9027 57.1322C90.9027 56.2851 91.0207 55.5006 91.2568 54.7784C91.4998 54.0494 91.8435 53.4211 92.2878 52.8934C92.7322 52.3588 93.2842 51.9422 93.9438 51.6437C94.6034 51.3382 95.3359 51.1855 96.1413 51.1855C97.2105 51.1855 98.1374 51.4493 98.922 51.9769C99.7065 52.4977 100.293 53.2024 100.682 54.0911C101.078 54.9728 101.276 55.9797 101.276 57.1115C101.276 58.2501 101.074 59.2637 100.672 60.1523C100.269 61.0411 99.6683 61.7494 98.8699 62.277C98.0714 62.7978 97.1341 63.0581 96.0579 63.0581V63.0581Z" fill="white"/>
<path d="M108.753 63.0581C107.205 63.0581 105.973 62.4228 105.056 61.1522L104.921 62.8081H103.838V46.9675L105.119 46.8535V50.6965C105.119 51.8699 105.108 52.6788 105.087 53.1232C105.511 52.4704 106.049 51.9844 106.702 51.665C107.361 51.3458 108.045 51.1862 108.753 51.1862C110.295 51.1862 111.496 51.7381 112.357 52.8419C113.225 53.9389 113.659 55.3553 113.659 57.0911C113.659 58.2575 113.478 59.2851 113.117 60.1738C112.763 61.0556 112.211 61.7568 111.461 62.2775C110.711 62.7983 109.809 63.0587 108.753 63.0587L108.753 63.0581ZM108.816 62.027C109.455 62.027 110.007 61.8916 110.472 61.6208C110.944 61.3432 111.305 60.9682 111.555 60.4961C111.812 60.017 111.996 59.5032 112.107 58.9547C112.225 58.3992 112.284 57.7987 112.284 57.153C112.284 56.6393 112.249 56.1568 112.18 55.7054C112.117 55.2472 111.999 54.8027 111.826 54.3722C111.659 53.9348 111.447 53.5634 111.19 53.2579C110.94 52.9524 110.611 52.706 110.201 52.5186C109.798 52.3311 109.337 52.2373 108.816 52.2373C107.615 52.2373 106.695 52.6712 106.056 53.5391C105.424 54.4 105.112 55.6256 105.119 57.2156C105.119 57.9446 105.185 58.5972 105.317 59.1735C105.455 59.7428 105.667 60.2461 105.952 60.6835C106.243 61.1139 106.629 61.4473 107.108 61.6835C107.587 61.9125 108.156 62.027 108.816 62.027V62.027Z" fill="white"/>
<path d="M116.346 62.8081V51.3937H117.647V62.8081H116.346ZM116.346 49.0609V47.3112H117.637V49.0609H116.346Z" fill="white"/>
<path d="M123.709 63.0476C122.751 63.0476 122.049 62.8324 121.605 62.402C121.161 61.9646 120.938 61.2564 120.938 60.2775V46.9572L122.209 46.8536V60.2053C122.209 60.8996 122.334 61.3787 122.584 61.6425C122.841 61.9063 123.226 62.0381 123.74 62.0381C124.157 62.0381 124.677 61.9583 125.302 61.7986L125.354 62.7985C124.674 62.9651 124.125 63.0485 123.709 63.0485L123.709 63.0476Z" fill="white"/>
<path d="M131.499 63.0581C129.923 63.0581 128.67 62.5304 127.739 61.475C126.816 60.4197 126.354 58.9895 126.354 57.1843C126.354 55.4416 126.805 54.0148 127.708 52.9039C128.617 51.793 129.791 51.2202 131.228 51.1855C132.568 51.1855 133.644 51.6645 134.457 52.6226C135.269 53.5808 135.675 54.8653 135.675 56.4761C135.675 56.5381 135.672 56.6665 135.665 56.8613C135.665 57.0489 135.665 57.1808 135.665 57.2572H127.718C127.732 58.7222 128.086 59.8851 128.781 60.746C129.475 61.6 130.392 62.027 131.53 62.027C132.273 62.027 132.919 61.9402 133.467 61.7666C134.016 61.593 134.589 61.3466 135.186 61.0273L135.404 61.9958C134.252 62.704 132.95 63.0581 131.499 63.0581H131.499ZM127.77 56.2157H134.269C134.269 54.9451 133.995 53.973 133.446 53.2996C132.898 52.6192 132.145 52.2791 131.186 52.2791C130.214 52.2791 129.43 52.64 128.833 53.3621C128.236 54.0841 127.881 55.0353 127.77 56.2157Z" fill="white"/>
<defs>
<linearGradient id="paint0_linear" x1="23.3687" y1="26.3687" x2="47.5" y2="50.5" gradientUnits="userSpaceOnUse">
<stop/>
<stop offset="1" stop-opacity="0"/>
</linearGradient>
</defs>
</svg>
