<?xml version="1.0" encoding="UTF-8" standalone="no"?>
<!-- Created with Inkscape (http://www.inkscape.org/) -->
<svg xmlns:dc="http://purl.org/dc/elements/1.1/" xmlns:cc="http://creativecommons.org/ns#" xmlns:rdf="http://www.w3.org/1999/02/22-rdf-syntax-ns#" xmlns:svg="http://www.w3.org/2000/svg" xmlns="http://www.w3.org/2000/svg" xmlns:xlink="http://www.w3.org/1999/xlink" xmlns:sodipodi="http://sodipodi.sourceforge.net/DTD/sodipodi-0.dtd" xmlns:inkscape="http://www.inkscape.org/namespaces/inkscape" width="105" height="40" viewBox="0 0 105 39.999999" id="svg9209" version="1.1" inkscape:version="0.91 r13725" sodipodi:docname="logo.svg">
  <defs>
    <linearGradient inkscape:collect="always" xlink:href="#linearGradient4173" id="linearGradient4179" x1="253" y1="236.36203" x2="253" y2="196.36203" gradientUnits="userSpaceOnUse"/>
    <linearGradient inkscape:collect="always" id="linearGradient4173">
      <stop style="stop-color:#31363b;stop-opacity:1;" offset="0" id="stop4175"/>
      <stop style="stop-color:#424649;stop-opacity:1" offset="1" id="stop4177"/>
    </linearGradient>
    <linearGradient inkscape:collect="always" xlink:href="#linearGradient4165" id="linearGradient4171" x1="256" y1="232.36203" x2="256" y2="199.36203" gradientUnits="userSpaceOnUse"/>
    <linearGradient inkscape:collect="always" id="linearGradient4165">
      <stop style="stop-color:#eff0f1;stop-opacity:1" offset="0" id="stop4167"/>
      <stop style="stop-color:#fcfcfc;stop-opacity:1" offset="1" id="stop4169"/>
    </linearGradient>
    <linearGradient inkscape:collect="always" xlink:href="#linearGradient4183" id="linearGradient4189" x1="251.91246" y1="207.27449" x2="268" y2="223.36203" gradientUnits="userSpaceOnUse" gradientTransform="translate(0,-252.36203)"/>
    <linearGradient inkscape:collect="always" id="linearGradient4183">
      <stop style="stop-color:#000000;stop-opacity:1;" offset="0" id="stop4185"/>
      <stop style="stop-color:#000000;stop-opacity:0;" offset="1" id="stop4187"/>
    </linearGradient>
  </defs>
  <metadata id="metadata9214"/>
  <g inkscape:label="Layer 1" inkscape:groupmode="layer" id="layer1" transform="translate(0,-1012.3622)">
    <g id="g4255" transform="translate(-243,816.00017)">
      <rect y="196.36203" x="243" height="40" width="22" id="rect4149" style="color:#000000;display:inline;overflow:visible;visibility:visible;opacity:1;fill:url(#linearGradient4179);fill-opacity:1;fill-rule:nonzero;stroke:none;stroke-width:1;stroke-linecap:round;stroke-linejoin:round;stroke-miterlimit:4;stroke-dasharray:none;stroke-opacity:1;marker:none;enable-background:accumulate"/>
      <rect y="199.36203" x="244" height="33" width="20" id="rect4151" style="color:#000000;display:inline;overflow:visible;visibility:visible;opacity:1;fill:url(#linearGradient4171);fill-opacity:1;fill-rule:nonzero;stroke:none;stroke-width:1;stroke-linecap:round;stroke-linejoin:round;stroke-miterlimit:4;stroke-dasharray:none;stroke-opacity:1;marker:none;enable-background:accumulate"/>
      <rect y="233.36203" x="251" height="1" width="6" id="rect4153" style="color:#000000;display:inline;overflow:visible;visibility:visible;opacity:1;fill:#4d4d4d;fill-opacity:1;fill-rule:nonzero;stroke:none;stroke-width:1;stroke-linecap:round;stroke-linejoin:round;stroke-miterlimit:4;stroke-dasharray:none;stroke-opacity:1;marker:none;enable-background:accumulate"/>
      <rect y="235.36203" x="243" height="1" width="22" id="rect4155" style="color:#000000;display:inline;overflow:visible;visibility:visible;opacity:1;fill:#192629;fill-opacity:1;fill-rule:nonzero;stroke:none;stroke-width:1;stroke-linecap:round;stroke-linejoin:round;stroke-miterlimit:4;stroke-dasharray:none;stroke-opacity:1;marker:none;enable-background:accumulate"/>
      <path id="path4181" transform="translate(0,252.36203)" d="m 251.70703,-42.707031 -1.41406,1.414062 7,7 L 256,-33 l 8,8 0,-10 -3,-3 -2.29297,2.292969 -7,-7 z m -2.14648,5.146484 -2.1211,2.121094 4.5,4.5 -1.5,1.5 L 259.87891,-20 264,-20 l 0,-3.121094 -14.43945,-14.439453 z" style="opacity:0.2;fill:url(#linearGradient4189);fill-opacity:1;fill-rule:evenodd;stroke:none;stroke-width:1px;stroke-linecap:butt;stroke-linejoin:miter;stroke-opacity:1" inkscape:connector-curvature="0"/>
      <path inkscape:connector-curvature="0" id="path4157" d="m 256,219.36203 -2,-2 3,-3 -3,-3 2,-2 5,5 z" style="fill:#31363b;fill-rule:evenodd;stroke:none;stroke-width:1px;stroke-linecap:butt;stroke-linejoin:miter;stroke-opacity:1"/>
      <circle r="1.5" cy="221.86203" cx="251.5" id="path4159" style="color:#000000;display:inline;overflow:visible;visibility:visible;opacity:1;fill:#31363b;fill-opacity:1;fill-rule:nonzero;stroke:none;stroke-width:1;stroke-linecap:round;stroke-linejoin:round;stroke-miterlimit:4;stroke-dasharray:none;stroke-opacity:1;marker:none;enable-background:accumulate"/>
      <circle r="1.5" cy="215.86203" cx="248.5" id="path4161" style="color:#000000;display:inline;overflow:visible;visibility:visible;opacity:1;fill:#31363b;fill-opacity:1;fill-rule:nonzero;stroke:none;stroke-width:1;stroke-linecap:round;stroke-linejoin:round;stroke-miterlimit:4;stroke-dasharray:none;stroke-opacity:1;marker:none;enable-background:accumulate"/>
      <circle r="1" cy="210.36203" cx="251" id="path4163" style="color:#000000;display:inline;overflow:visible;visibility:visible;opacity:1;fill:#31363b;fill-opacity:1;fill-rule:nonzero;stroke:none;stroke-width:1;stroke-linecap:round;stroke-linejoin:round;stroke-miterlimit:4;stroke-dasharray:none;stroke-opacity:1;marker:none;enable-background:accumulate"/>
    </g>
    <path inkscape:connector-curvature="0" id="path9846" style="font-style:normal;font-variant:normal;font-weight:300;font-stretch:normal;font-size:medium;line-height:125%;font-family:Oxygen;-inkscape-font-specification:'Oxygen Light';letter-spacing:0px;word-spacing:0px;fill:#192629;fill-opacity:1;stroke:none;stroke-width:1px;stroke-linecap:butt;stroke-linejoin:miter;stroke-opacity:1" d="m 42.000012,1031.9504 0,-14.5882 4.460783,0 q 0.941176,0 1.715686,0.2059 0.774509,0.1961 1.392156,0.6176 0.627451,0.4216 0.970588,1.1471 0.343137,0.7157 0.343137,1.6765 0,0.5588 -0.05882,1.0098 -0.04902,0.4411 -0.196079,0.9117 -0.147058,0.4706 -0.40196,0.8236 -0.245098,0.3529 -0.656863,0.6764 -0.401961,0.3236 -0.960784,0.5294 -0.549019,0.2059 -1.323529,0.3236 -0.77451,0.1176 -1.745098,0.1176 -1.039215,0 -2.274509,-0.1274 l 0,6.6764 -1.264705,0 z m 3.666665,-7.6372 q 1.137255,0 1.931372,-0.2255 0.794118,-0.2255 1.186275,-0.5098 0.392156,-0.2843 0.598039,-0.8039 0.205882,-0.5196 0.22549,-0.8334 0.02941,-0.3137 0.02941,-0.8823 0,-0.039 0,-0.059 0,-1.2844 -0.872549,-1.9118 -0.872549,-0.6275 -2.254902,-0.6275 l -3.245097,0 0,5.7353 q 0.862745,0.1177 2.40196,0.1177 z"/>
    <path inkscape:connector-curvature="0" id="path9848" style="font-style:normal;font-variant:normal;font-weight:300;font-stretch:normal;font-size:medium;line-height:125%;font-family:Oxygen;-inkscape-font-specification:'Oxygen Light';letter-spacing:0px;word-spacing:0px;fill:#192629;fill-opacity:1;stroke:none;stroke-width:1px;stroke-linecap:butt;stroke-linejoin:miter;stroke-opacity:1" d="m 55.813733,1032.1759 q -1.35294,0 -1.980391,-0.6078 -0.627451,-0.6177 -0.627451,-2 l 0,-12.5392 1.196078,-0.098 0,12.5687 q 0,0.9804 0.352941,1.3529 0.362745,0.3725 1.088235,0.3725 0.588235,0 1.470588,-0.2254 l 0.04902,0.9411 q -0.960784,0.2353 -1.54902,0.2353 z"/>
    <path inkscape:connector-curvature="0" id="path9850" style="font-style:normal;font-variant:normal;font-weight:300;font-stretch:normal;font-size:medium;line-height:125%;font-family:Oxygen;-inkscape-font-specification:'Oxygen Light';letter-spacing:0px;word-spacing:0px;fill:#192629;fill-opacity:1;stroke:none;stroke-width:1px;stroke-linecap:butt;stroke-linejoin:miter;stroke-opacity:1" d="m 61.666674,1032.1857 q -1.519608,0 -2.431372,-0.7647 -0.911765,-0.7647 -0.911765,-2.1862 0,-0.8432 0.362745,-1.4608 0.362745,-0.6275 1.049019,-1.0098 0.696079,-0.3922 1.578431,-0.6079 0.892157,-0.2157 2.068627,-0.3039 1.254902,-0.078 1.862745,-0.1274 l 0,-1.1961 q 0,-1.2353 -0.568627,-1.853 -0.558824,-0.6274 -1.803921,-0.6274 -1.705882,0 -3.186274,0.8137 -0.03922,-0.098 -0.186275,-0.4216 -0.137254,-0.3333 -0.196078,-0.5098 0.607843,-0.3921 1.588235,-0.6568 0.980392,-0.2647 1.921568,-0.2647 1.931372,0 2.774509,0.8333 0.843137,0.8235 0.843137,2.9314 l 0,7.1764 -0.95098,0 q -0.04902,-0.2255 -0.147059,-0.8921 -0.08823,-0.6667 -0.08823,-0.6863 -1.264706,1.8137 -3.57843,1.8137 z m 0.03921,-0.9706 q 1.254902,0 2.22549,-0.7352 0.980392,-0.7451 1.284313,-2.0589 l 0,-1.8333 q -1.411764,0.1176 -1.421568,0.1176 -2.392156,0.2157 -3.323529,0.7844 -0.931372,0.5686 -0.931372,1.7647 0,0.9804 0.588235,1.4705 0.598039,0.4902 1.578431,0.4902 z"/>
    <path inkscape:connector-curvature="0" id="path9852" style="font-style:normal;font-variant:normal;font-weight:300;font-stretch:normal;font-size:medium;line-height:125%;font-family:Oxygen;-inkscape-font-specification:'Oxygen Light';letter-spacing:0px;word-spacing:0px;fill:#192629;fill-opacity:1;stroke:none;stroke-width:1px;stroke-linecap:butt;stroke-linejoin:miter;stroke-opacity:1" d="m 72.480396,1032.1955 q -1.039215,0 -1.95098,-0.2549 -0.911764,-0.2549 -1.441176,-0.6078 l 0.176471,-1.0196 q 1.617647,0.8431 3.098038,0.8431 2.656862,0 2.754902,-1.9706 0,-0.8235 -0.539216,-1.2941 -0.529412,-0.4706 -2.137254,-0.9804 -0.843137,-0.2941 -0.931373,-0.3235 -2.519607,-0.7647 -2.539215,-2.7157 0,-1.1274 0.990196,-1.9902 1,-0.8725 2.696078,-0.8725 1.696078,0 3.186274,0.6666 l -0.411765,0.902 q -1.509804,-0.5686 -2.803921,-0.5686 -1.137255,0 -1.794117,0.5098 -0.647059,0.5098 -0.647059,1.3725 0,0.7255 0.421569,1.1177 0.431372,0.3823 1.696078,0.7353 0.137255,0.039 0.5,0.1764 0.372549,0.1373 0.411764,0.1471 1.696078,0.5196 2.362745,1.2353 0.67647,0.7059 0.67647,1.9314 -0.02941,1.4117 -1.058823,2.1862 -1.019608,0.7745 -2.715686,0.7745 z"/>
    <path inkscape:connector-curvature="0" id="path9854" style="font-style:normal;font-variant:normal;font-weight:300;font-stretch:normal;font-size:medium;line-height:125%;font-family:Oxygen;-inkscape-font-specification:'Oxygen Light';letter-spacing:0px;word-spacing:0px;fill:#192629;fill-opacity:1;stroke:none;stroke-width:1px;stroke-linecap:butt;stroke-linejoin:miter;stroke-opacity:1" d="m 78.627452,1031.9504 q -0.02941,-9.7451 -0.02941,-10.7451 l 1.058824,0 0.156862,1.6471 q 0.470588,-0.8039 1.401961,-1.3235 0.941176,-0.5196 1.990195,-0.5196 2.578431,0 3.235294,2.0294 1.147058,-2.0294 3.617646,-2.0294 1.764705,0 2.588234,1.0098 0.833334,1 0.833334,2.9902 l 0,6.9411 -1.215686,0 0,-5.2549 q 0,-0.7451 -0.01961,-1.2451 -0.01961,-0.5 -0.09804,-1.0882 -0.06863,-0.5882 -0.225491,-0.9608 -0.147058,-0.3725 -0.392156,-0.7059 -0.245098,-0.3333 -0.627451,-0.4902 -0.382353,-0.1568 -0.901961,-0.1568 -1.235294,0 -2.098038,0.7353 -0.852941,0.7255 -1.186275,2.049 0.01961,1 0.04902,1.549 l 0,5.5686 -1.205882,0 0,-5.4705 q 0,-0.8334 -0.04902,-1.4412 -0.04902,-0.6177 -0.196078,-1.2059 -0.147059,-0.5882 -0.401961,-0.9608 -0.245098,-0.3725 -0.666666,-0.598 -0.411765,-0.2255 -0.990196,-0.2255 -1.333333,0 -2.235294,0.7157 -0.892156,0.7058 -1.156862,1.9313 -0.01961,0.402 -0.01961,1.1471 l 0,6.1078 -1.215686,0 z"/>
    <path inkscape:connector-curvature="0" id="path9856" style="font-style:normal;font-variant:normal;font-weight:300;font-stretch:normal;font-size:medium;line-height:125%;font-family:Oxygen;-inkscape-font-specification:'Oxygen Light';letter-spacing:0px;word-spacing:0px;fill:#192629;fill-opacity:1;stroke:none;stroke-width:1px;stroke-linecap:butt;stroke-linejoin:miter;stroke-opacity:1" d="m 99.15686,1032.1857 q -1.519607,0 -2.431372,-0.7647 -0.911764,-0.7647 -0.911764,-2.1862 0,-0.8432 0.362745,-1.4608 0.362745,-0.6275 1.049019,-1.0098 0.696078,-0.3922 1.578431,-0.6079 0.892157,-0.2157 2.068631,-0.3039 1.2549,-0.078 1.86274,-0.1274 l 0,-1.1961 q 0,-1.2353 -0.56863,-1.853 -0.55882,-0.6274 -1.80392,-0.6274 -1.70588,0 -3.186271,0.8137 -0.03922,-0.098 -0.186275,-0.4216 -0.137255,-0.3333 -0.196078,-0.5098 0.607843,-0.3921 1.588235,-0.6568 0.980392,-0.2647 1.921569,-0.2647 1.93137,0 2.77451,0.8333 0.84313,0.8235 0.84313,2.9314 l 0,7.1764 -0.95098,0 q -0.049,-0.2255 -0.14705,-0.8921 -0.0882,-0.6667 -0.0882,-0.6863 -1.2647,1.8137 -3.57843,1.8137 z m 0.03922,-0.9706 q 1.2549,0 2.22549,-0.7352 0.98039,-0.7451 1.28431,-2.0589 l 0,-1.8333 q -1.41177,0.1176 -1.42157,0.1176 -2.392152,0.2157 -3.323524,0.7844 -0.931372,0.5686 -0.931372,1.7647 0,0.9804 0.588235,1.4705 0.598039,0.4902 1.578431,0.4902 z"/>
    <path inkscape:connector-curvature="0" id="path9833" style="font-style:normal;font-variant:normal;font-weight:300;font-stretch:normal;font-size:medium;line-height:125%;font-family:Oxygen;-inkscape-font-specification:'Oxygen Light';letter-spacing:0px;word-spacing:0px;fill:#192629;fill-opacity:1;stroke:none;stroke-width:1px;stroke-linecap:butt;stroke-linejoin:miter;stroke-opacity:1" d="m 42.000012,1047.5676 0,-10.3313 1.249752,0 3.825629,8.7275 3.721484,-8.7275 1.20115,0 0,10.3313 -0.881769,0 0,-6.95 0.0486,-2.3467 -0.256893,0.8331 -3.39516,7.8735 -0.972029,0 -3.436818,-7.8943 -0.270779,-0.8332 0.0486,2.4023 0,6.9153 -0.881769,0 z"/>
    <path inkscape:connector-curvature="0" id="path9835" style="font-style:normal;font-variant:normal;font-weight:300;font-stretch:normal;font-size:medium;line-height:125%;font-family:Oxygen;-inkscape-font-specification:'Oxygen Light';letter-spacing:0px;word-spacing:0px;fill:#192629;fill-opacity:1;stroke:none;stroke-width:1px;stroke-linecap:butt;stroke-linejoin:miter;stroke-opacity:1" d="m 57.434448,1047.0469 q 0.833168,0 1.402499,-0.4374 0.576275,-0.4444 0.833168,-1.1665 0.263837,-0.722 0.263837,-1.6593 0,-1.472 -0.624876,-2.3676 -0.624876,-0.8957 -1.9024,-0.8957 -0.833168,0 -1.423329,0.4513 -0.583217,0.4444 -0.853997,1.1734 -0.270779,0.7221 -0.270779,1.6594 0,1.4233 0.659591,2.3329 0.666534,0.9095 1.916286,0.9095 z m -0.06249,0.6874 q -1.034516,0 -1.826026,-0.5208 -0.784566,-0.5207 -1.20115,-1.4094 -0.409641,-0.8957 -0.409641,-2.0204 0,-0.8471 0.236064,-1.5692 0.243007,-0.729 0.687364,-1.2567 0.444356,-0.5346 1.103947,-0.8331 0.659591,-0.3055 1.464987,-0.3055 1.069232,0 1.853799,0.5276 0.784566,0.5208 1.173378,1.4095 0.395755,0.8817 0.395755,2.0135 0,1.1386 -0.402698,2.0273 -0.402698,0.8888 -1.201151,1.4164 -0.798452,0.5208 -1.874628,0.5208 z"/>
    <path inkscape:connector-curvature="0" id="path9837" style="font-style:normal;font-variant:normal;font-weight:300;font-stretch:normal;font-size:medium;line-height:125%;font-family:Oxygen;-inkscape-font-specification:'Oxygen Light';letter-spacing:0px;word-spacing:0px;fill:#192629;fill-opacity:1;stroke:none;stroke-width:1px;stroke-linecap:butt;stroke-linejoin:miter;stroke-opacity:1" d="m 65.835558,1047.7343 q -1.548304,0 -2.464789,-1.2706 l -0.09026,1.1039 -0.722078,0 0,-10.5604 0.853997,-0.076 0,2.562 q 0,1.1734 -0.02083,1.6178 0.423528,-0.6527 1.076176,-0.9721 0.659591,-0.3193 1.367784,-0.3193 1.54136,0 2.402301,1.1039 0.867883,1.097 0.867883,2.8328 0,1.1664 -0.36104,2.0551 -0.354096,0.8818 -1.103947,1.4025 -0.749851,0.5208 -1.805197,0.5208 z m 0.04166,-0.6874 q 0.638762,0 1.103948,-0.2708 0.472128,-0.2777 0.722079,-0.7498 0.256893,-0.4791 0.367982,-1.0276 0.118032,-0.5555 0.118032,-1.2012 0,-0.5137 -0.06943,-0.965 -0.06249,-0.4583 -0.236065,-0.8888 -0.166633,-0.4374 -0.423527,-0.7429 -0.24995,-0.3055 -0.659591,-0.4929 -0.402698,-0.1875 -0.923428,-0.1875 -1.20115,0 -1.839912,0.8679 -0.631819,0.8609 -0.624876,2.4509 0,0.729 0.131918,1.3053 0.138861,0.5693 0.423527,1.0067 0.291609,0.4305 0.77068,0.6666 0.479072,0.2291 1.138663,0.2291 z"/>
    <path inkscape:connector-curvature="0" id="path9839" style="font-style:normal;font-variant:normal;font-weight:300;font-stretch:normal;font-size:medium;line-height:125%;font-family:Oxygen;-inkscape-font-specification:'Oxygen Light';letter-spacing:0px;word-spacing:0px;fill:#192629;fill-opacity:1;stroke:none;stroke-width:1px;stroke-linecap:butt;stroke-linejoin:miter;stroke-opacity:1" d="m 70.897054,1047.5676 0,-7.6096 0.867883,0 0,7.6096 -0.867883,0 z m 0,-9.1648 0,-1.1665 0.86094,0 0,1.1665 -0.86094,0 z"/>
    <path inkscape:connector-curvature="0" id="path9841" style="font-style:normal;font-variant:normal;font-weight:300;font-stretch:normal;font-size:medium;line-height:125%;font-family:Oxygen;-inkscape-font-specification:'Oxygen Light';letter-spacing:0px;word-spacing:0px;fill:#192629;fill-opacity:1;stroke:none;stroke-width:1px;stroke-linecap:butt;stroke-linejoin:miter;stroke-opacity:1" d="m 75.805802,1047.7273 q -0.958143,0 -1.402499,-0.4305 -0.444357,-0.4374 -0.444357,-1.4163 l 0,-8.8802 0.847054,-0.069 0,8.9011 q 0,0.6943 0.249951,0.9581 0.256893,0.2638 0.77068,0.2638 0.416584,0 1.04146,-0.1597 l 0.03471,0.6666 q -0.68042,0.1666 -1.097004,0.1666 z"/>
    <path inkscape:connector-curvature="0" id="path9843" style="font-style:normal;font-variant:normal;font-weight:300;font-stretch:normal;font-size:medium;line-height:125%;font-family:Oxygen;-inkscape-font-specification:'Oxygen Light';letter-spacing:0px;word-spacing:0px;fill:#192629;fill-opacity:1;stroke:none;stroke-width:1px;stroke-linecap:butt;stroke-linejoin:miter;stroke-opacity:1" d="m 80.999215,1047.7343 q -1.576076,0 -2.506447,-1.0554 -0.923428,-1.0553 -0.923428,-2.8605 0,-1.7427 0.902599,-2.8536 0.909541,-1.1109 2.346756,-1.1456 1.340012,0 2.15235,0.9581 0.812339,0.9582 0.812339,2.5689 0,0.062 -0.0069,0.2569 0,0.1875 0,0.2639 l -5.297559,0 q 0.01389,1.465 0.708192,2.3259 0.694307,0.854 1.83297,0.854 0.742908,0 1.29141,-0.1736 0.548502,-0.1736 1.145606,-0.4929 l 0.145804,0.6457 q -1.152549,0.7082 -2.603649,0.7082 z m -2.485618,-4.5616 4.332473,0 q 0,-1.2706 -0.548502,-1.9441 -0.548502,-0.6804 -1.506645,-0.6804 -0.97203,0 -1.569133,0.7221 -0.597104,0.722 -0.708193,1.9024 z"/>
  </g>
</svg>
